HIERARCHY
ROOT Hips
{
	OFFSET 0.00000 0.00000 0.00000
	CHANNELS 6 Xposition Yposition Zposition Zrotation Yrotation Xrotation 
	JOINT LHipJoint
	{
		OFFSET 0 0 0
		CHANNELS 3 Zrotation Yrotation Xrotation
		JOINT LeftUpLeg
		{
			OFFSET 1.39187 -1.60231 0.69152
			CHANNELS 3 Zrotation Yrotation Xrotation
			JOINT LeftLeg
			{
				OFFSET 2.43314 -6.68499 0.00000
				CHANNELS 3 Zrotation Yrotation Xrotation
				JOINT LeftFoot
				{
					OFFSET 2.32059 -6.37578 0.00000
					CHANNELS 3 Zrotation Yrotation Xrotation
					JOINT LeftToeBase
					{
						OFFSET 0.23021 -0.63250 1.71305
						CHANNELS 3 Zrotation Yrotation Xrotation
						End Site
						{
							OFFSET 0.00000 -0.00000 0.91647
						}
					}
				}
			}
		}
	}
	JOINT RHipJoint
	{
		OFFSET 0 0 0
		CHANNELS 3 Zrotation Yrotation Xrotation
		JOINT RightUpLeg
		{
			OFFSET -1.19407 -1.60231 0.69152
			CHANNELS 3 Zrotation Yrotation Xrotation
			JOINT RightLeg
			{
				OFFSET -2.44411 -6.71513 0.00000
				CHANNELS 3 Zrotation Yrotation Xrotation
				JOINT RightFoot
				{
					OFFSET -2.31924 -6.37207 0.00000
					CHANNELS 3 Zrotation Yrotation Xrotation
					JOINT RightToeBase
					{
						OFFSET -0.19473 -0.53502 1.87724
						CHANNELS 3 Zrotation Yrotation Xrotation
						End Site
						{
							OFFSET -0.00000 -0.00000 0.98293
						}
					}
				}
			}
		}
	}
	JOINT LowerBack
	{
		OFFSET 0 0 0
		CHANNELS 3 Zrotation Yrotation Xrotation
		JOINT Spine
		{
			OFFSET -0.01120 1.87307 0.09613
			CHANNELS 3 Zrotation Yrotation Xrotation
			JOINT Spine1
			{
				OFFSET 0.01099 1.87818 0.04834
				CHANNELS 3 Zrotation Yrotation Xrotation
				JOINT Neck
				{
					OFFSET 0 0 0
					CHANNELS 3 Zrotation Yrotation Xrotation
					JOINT Neck1
					{
						OFFSET 0.01702 1.40324 -0.12579
						CHANNELS 3 Zrotation Yrotation Xrotation
						JOINT Head
						{
							OFFSET -0.04239 1.38587 -0.01614
							CHANNELS 3 Zrotation Yrotation Xrotation
							End Site
							{
								OFFSET -0.02510 1.47031 -0.00154
							}
						}
					}
				}
				JOINT LeftShoulder
				{
					OFFSET 0 0 0
					CHANNELS 3 Zrotation Yrotation Xrotation
					JOINT LeftArm
					{
						OFFSET 2.95699 0.62343 0.11653
						CHANNELS 3 Zrotation Yrotation Xrotation
						JOINT LeftForeArm
						{
							OFFSET 4.68382 -0.00000 -0.00000
							CHANNELS 3 Zrotation Yrotation Xrotation
							JOINT LeftHand
							{
								OFFSET 2.98124 -0.00000 -0.00000
								CHANNELS 3 Zrotation Yrotation Xrotation
								JOINT LeftFingerBase
								{
									OFFSET 0 0 0
									CHANNELS 3 Zrotation Yrotation Xrotation
									JOINT LeftHandIndex1
									{
										OFFSET 0.70759 -0.00000 0.00000
										CHANNELS 3 Zrotation Yrotation Xrotation
										End Site
										{
											OFFSET 0.57048 -0.00000 0.00000
										}
									}
								}
								JOINT LThumb
								{
									OFFSET 0 0 0
									CHANNELS 3 Zrotation Yrotation Xrotation
									End Site
									{
										OFFSET 0.57919 -0.00000 0.57919
									}
								}
							}
						}
					}
				}
				JOINT RightShoulder
				{
					OFFSET 0 0 0
					CHANNELS 3 Zrotation Yrotation Xrotation
					JOINT RightArm
					{
						OFFSET -2.99027 0.88714 -0.02793
						CHANNELS 3 Zrotation Yrotation Xrotation
						JOINT RightForeArm
						{
							OFFSET -4.75876 -0.00000 -0.00000
							CHANNELS 3 Zrotation Yrotation Xrotation
							JOINT RightHand
							{
								OFFSET -2.93293 -0.00000 -0.00000
								CHANNELS 3 Zrotation Yrotation Xrotation
								JOINT RightFingerBase
								{
									OFFSET 0 0 0
									CHANNELS 3 Zrotation Yrotation Xrotation
									JOINT RightHandIndex1
									{
										OFFSET -0.83175 -0.00000 0.00000
										CHANNELS 3 Zrotation Yrotation Xrotation
										End Site
										{
											OFFSET -0.67058 -0.00000 0.00000
										}
									}
								}
								JOINT RThumb
								{
									OFFSET 0 0 0
									CHANNELS 3 Zrotation Yrotation Xrotation
									End Site
									{
										OFFSET -0.68082 -0.00000 0.68082
									}
								}
							}
						}
					}
				}
			}
		}
	}
}
MOTION
Frames: 12
Frame Time: 0.0540541
0.00 0.00 0.00 -173.9710 66.6188 -160.3450 0.0000 0.0000 0.0000 -12.4524 0.9341 -20.9090 7.5398 15.7701 50.8876 -1.8131 23.0260 -9.8837 0.9408 6.1780 17.3017 0.0000 0.0000 0.0000 27.8012 2.2556 -28.8011 -2.6987 -10.1906 29.5962 -0.6787 -6.7573 -19.4621 -0.1667 2.6300 -7.2504 -1.0950 -1.8410 -10.2488 1.2177 -2.1788 -4.1361 1.6285 -0.9891 1.5317 -8.3051 -4.1302 5.7303 13.5983 -6.5815 15.0835 5.5124 -2.8570 4.2211 0.0000 -0.0000 0.0000 -90.0723 4.3200 -103.1602 6.8441 -11.6623 -0.6998 -0.0000 -0.0000 141.8730 9.9928 29.5111 4.9605 -7.1250 0.0000 -0.0000 -23.5068 58.2852 -7.9218 0.0000 -0.0000 0.0000 93.7829 -7.8604 -10.4138 -11.5839 19.1777 -1.9635 0.0000 0.0000 11.2638 -13.2165 1.5894 -0.3732 7.1250 -0.0000 -0.0000 10.3191 -28.2887 4.2599
0.00 0.00 0.00 -172.3380 71.6226 -159.1430 0.0000 0.0000 0.0000 -12.8150 -1.4650 -26.2746 9.8917 17.3485 59.1256 -1.2079 19.2941 -10.8712 0.8471 5.8704 16.4087 0.0000 0.0000 0.0000 28.6510 3.1528 -24.4222 -2.3863 -9.6281 27.7806 -1.0428 -3.6599 -20.9364 -0.1793 2.7272 -7.5201 -0.9981 -0.7049 -9.0852 1.4270 -0.7334 -3.7108 1.9624 -0.2863 1.2798 -7.8959 -3.4018 5.0409 11.1969 -5.3277 13.5927 4.6765 -2.3892 3.6924 0.0000 -0.0000 0.0000 -92.6795 4.1284 -70.1148 5.4936 -9.4150 -0.4527 -0.0000 -0.0000 108.0620 8.6697 28.0091 4.0958 -7.1250 0.0000 -0.0000 -23.7436 56.6399 -7.0499 0.0000 -0.0000 0.0000 92.6788 -5.3155 -11.3655 -10.1992 17.0505 -1.5328 0.0000 0.0000 16.3353 -14.7887 1.9499 -0.5147 7.1250 -0.0000 -0.0000 9.0830 -27.9230 3.8164
0.00 0.00 0.00 -174.2210 75.9019 -160.2000 0.0000 0.0000 0.0000 -14.4115 -5.3088 -31.8969 10.5897 17.7284 61.4418 -0.9350 18.4285 -15.0168 1.7412 8.3048 23.6437 0.0000 0.0000 0.0000 27.8073 4.6422 -21.8124 -2.1666 -9.2047 26.4378 -1.1179 -2.7177 -21.1228 -0.3197 3.6343 -10.0500 -1.0309 0.3847 -9.1164 0.5824 0.7396 -3.9898 1.2531 0.4506 0.9571 -8.6250 -2.2773 6.8955 12.0733 -3.8989 11.4974 5.1217 -1.7956 2.6413 -0.0000 0.0000 0.0000 -93.5099 4.4818 -27.6131 6.1579 -10.5253 -0.5677 -0.0000 -0.0000 66.3829 3.6726 24.5511 1.5277 -7.1250 0.0000 -0.0000 -26.3117 52.5851 -5.2032 -0.0000 0.0000 0.0000 92.7442 -2.3695 -15.5214 -8.3681 14.1478 -1.0402 0.0000 0.0000 24.8127 -15.5994 4.6060 -1.2844 7.1250 -0.0000 -0.0000 8.2930 -25.1931 4.0140
0.00 0.00 0.00 -174.9520 85.2162 -157.9120 0.0000 0.0000 0.0000 -15.6419 -13.7901 -43.6389 6.1089 14.5331 45.4174 0.0255 11.8103 -17.1493 0.0714 1.7244 4.7446 0.0000 0.0000 0.0000 26.6698 8.8969 -14.3177 -1.2546 -7.1011 20.0151 -0.9626 -2.3440 -19.5188 -0.2427 3.1704 -8.7536 -1.0801 2.3758 -10.3491 -0.9308 3.4595 -4.6247 0.0245 1.8153 0.9808 -6.8343 -1.4990 4.2226 9.0335 -2.5235 11.3449 3.8510 -1.1079 2.8551 -0.0000 -0.0000 0.0000 -90.8073 2.7090 6.3340 9.5599 -16.0482 -1.3507 -0.0000 -0.0000 40.3531 4.4791 22.3919 1.7092 -7.1250 0.0000 -0.0000 -24.3274 50.7723 -3.6462 -0.0000 -0.0000 0.0000 94.6967 3.2955 -0.3223 -9.5831 16.0848 -1.3571 0.0000 0.0000 21.6120 -17.2488 7.1084 -2.2003 7.1250 -0.0000 -0.0000 6.9762 -22.5569 3.7938
0.00 0.00 0.00 -28.5493 87.6897 -10.8852 0.0000 0.0000 0.0000 -7.7070 -23.6489 -45.7883 1.4990 7.7336 21.9079 0.3271 7.8938 -16.4508 0.1193 -2.2265 -6.1322 0.0000 0.0000 0.0000 27.4022 8.6835 -1.2309 -0.1254 -2.2824 6.2868 -0.6133 -0.1904 -14.8679 -0.2585 3.2709 -9.0338 -0.7340 2.7580 -10.1796 -0.8012 3.9157 -4.6903 0.0026 2.0355 0.8306 -4.9662 0.4334 5.3719 4.2952 0.3449 5.0007 2.2008 0.1515 0.6355 -0.0000 0.0000 0.0000 -88.9807 4.8843 12.8831 12.2981 -20.2502 -2.2044 -0.0000 -0.0000 23.6661 -2.6923 22.6447 -1.0372 -7.1250 0.0000 -0.0000 -30.9732 49.8813 -4.0754 -0.0000 0.0000 0.0000 96.3356 8.0506 18.1356 -13.2876 21.7072 -2.5587 0.0000 0.0000 8.6934 -13.0402 7.8672 -1.8158 7.1250 -0.0000 -0.0000 10.0065 -21.9489 5.6253
0.00 0.00 0.00 -20.6822 83.0325 -3.8282 0.0000 0.0000 0.0000 -11.9783 -20.3167 -42.5556 1.9894 8.8440 25.3084 0.1150 7.9993 -13.5093 0.0870 -1.9021 -5.2352 0.0000 0.0000 0.0000 25.5228 1.1319 6.6795 -0.4345 -4.2302 11.7251 0.4883 14.0106 -2.0799 -0.2024 2.8969 -7.9919 -2.0982 1.3188 -13.2686 0.2664 2.2186 -5.2621 1.7834 1.2280 1.8180 -4.4971 1.5906 5.1547 6.2347 1.9072 3.0412 2.7292 0.9218 -0.0426 -0.0000 -0.0000 0.0000 -91.8992 4.1302 -39.9254 5.8540 -10.0184 -0.5135 -0.0000 -0.0000 79.7576 5.6170 24.2962 2.3173 -7.1250 0.0000 -0.0000 -24.3297 52.6904 -4.8351 -0.0000 -0.0000 0.0000 96.9533 4.4516 27.5677 -14.2288 23.0609 -2.9171 0.0000 0.0000 7.3949 -13.5952 8.1379 -1.9607 7.1250 -0.0000 -0.0000 9.5937 -21.6536 5.4519
0.00 0.00 0.00 -8.0469 84.4418 9.0681 0.0000 0.0000 0.0000 -15.9189 -20.6463 -39.8207 2.5515 9.9310 28.7536 0.4826 0.5302 -13.3254 0.0281 -1.0830 -2.9771 0.0000 0.0000 0.0000 21.2982 -2.2933 -1.4409 -2.3052 -9.4747 27.2918 0.6835 16.1236 13.6588 -0.0015 0.2498 -0.6864 -3.9524 -0.1394 -15.0220 -0.0287 0.6714 -6.2739 2.3144 0.5277 1.7378 -3.4275 1.7782 6.6201 5.9773 2.2126 2.5080 2.4280 1.0629 -0.4609 -0.0000 0.0000 0.0000 -91.9222 4.8215 -64.1931 5.4606 -9.3596 -0.4473 -0.0000 -0.0000 102.3430 0.4821 23.2201 0.1901 -7.1250 0.0000 -0.0000 -28.4604 50.8779 -4.4304 -0.0000 0.0000 0.0000 96.4439 -0.8399 24.5143 -13.6985 22.3020 -2.7126 0.0000 0.0000 9.3756 -12.8696 9.6751 -2.1989 7.1250 -0.0000 -0.0000 10.0503 -20.1320 6.0701
0.00 0.00 0.00 -5.3040 85.8772 11.1110 0.0000 0.0000 0.0000 -18.6501 -19.9430 -35.6225 2.7292 10.2431 29.7677 0.7257 -2.2633 -15.4841 0.0476 1.4083 3.8729 0.0000 0.0000 0.0000 19.5574 -1.7114 -9.5291 -5.8756 -14.3067 44.4805 -1.0702 9.1045 24.8218 -0.0570 1.5399 -4.2358 -3.8464 -0.2997 -14.3912 0.0049 0.3894 -5.7177 2.2422 0.3554 2.0071 -3.3668 1.6100 5.5393 4.8015 2.0276 0.6874 2.0386 0.9651 -0.8212 0.0000 -0.0000 0.0000 -92.1853 2.2247 -67.6923 5.4906 -9.4099 -0.4522 -0.0000 -0.0000 106.7010 -2.6865 24.7525 -1.1255 -7.1250 0.0000 -0.0000 -32.2853 51.6861 -5.8240 0.0000 -0.0000 0.0000 95.4467 -2.3939 17.0753 -12.6489 20.7706 -2.3273 0.0000 0.0000 12.5292 -13.3942 10.4486 -2.4728 7.1250 -0.0000 -0.0000 9.6532 -19.3245 6.0002
0.00 0.00 0.00 9.8757 85.2557 25.7166 0.0000 0.0000 0.0000 -22.8289 -16.3706 -29.8848 2.5179 9.8704 28.5581 1.0924 -4.8400 -18.7367 0.1332 2.3524 6.4807 0.0000 0.0000 0.0000 16.7628 1.9766 -20.8069 -10.9091 -17.8903 62.4859 -0.1327 3.5769 9.1482 -0.2211 3.0268 -8.3533 -4.9821 -0.5137 -14.9240 0.0334 0.2617 -4.5192 2.9048 0.2171 3.5528 -2.4837 2.3574 5.8042 2.6980 3.0537 -1.2156 1.1743 1.4899 -1.4498 -0.0000 0.0000 0.0000 -92.6010 -1.1191 -56.5545 5.3483 -9.1710 -0.4293 -0.0000 -0.0000 98.3251 0.7891 23.6795 0.3170 -7.1250 0.0000 -0.0000 -28.4537 51.3310 -4.7638 -0.0000 0.0000 0.0000 93.8738 -2.1324 7.4601 -10.2437 17.1199 -1.5459 0.0000 0.0000 17.7938 -13.6144 7.8478 -1.8941 7.1250 -0.0000 -0.0000 9.5926 -21.9467 5.3864
0.00 0.00 0.00 1.5698 87.8962 17.1245 0.0000 0.0000 0.0000 -23.9401 -14.0916 -21.6827 2.5021 9.8417 28.4656 1.8316 -8.6829 -24.2626 0.1226 2.2572 6.2169 0.0000 0.0000 0.0000 15.9795 12.1921 -36.5065 -10.3155 -17.5835 60.5378 -0.0057 -6.2714 -9.0963 -0.0351 1.2098 -3.3262 -4.1907 -1.0979 -13.5794 0.7563 -0.7325 -4.6143 3.0474 -0.2599 2.8134 -3.7582 2.1004 5.0016 5.9931 2.6144 3.7310 2.5023 1.2951 0.1762 0.0000 -0.0000 0.0000 -93.7156 -5.0268 -20.7417 6.4044 -10.9350 -0.6136 -0.0000 -0.0000 64.0210 10.3008 23.8329 4.2001 -7.1250 0.0000 -0.0000 -19.5883 53.0788 -4.0155 0.0000 -0.0000 0.0000 91.3057 -5.8423 -4.1006 -9.4149 15.8191 -1.3109 0.0000 0.0000 21.5619 -14.8177 6.2273 -1.6437 7.1250 -0.0000 -0.0000 8.7904 -23.5534 4.5977
0.00 0.00 0.00 -196.2250 84.9378 -181.1870 0.0000 0.0000 0.0000 -27.5184 -10.8148 -4.1356 1.2716 7.1471 20.1519 1.8281 -9.2395 -24.2479 0.2960 3.4986 9.6700 0.0000 0.0000 0.0000 10.5809 20.2861 -32.6868 0.0000 0.0000 -0.0000 0.0505 -4.0046 -1.0292 -0.5082 4.5697 -12.6851 -7.3223 -2.8191 -11.7859 1.0814 -2.7792 -3.8027 4.8647 -1.3171 3.0049 -6.2611 -0.4361 6.0445 11.8244 -0.7651 0.8809 4.5980 -0.4975 -0.6716 -0.0000 0.0000 0.0000 -94.0308 -10.4850 16.0805 12.1623 -20.0475 -2.1576 -0.0000 -0.0000 28.7570 6.4473 21.7557 2.3984 -7.1250 0.0000 -0.0000 -22.1715 50.4983 -3.1384 -0.0000 0.0000 0.0000 90.8205 -11.0088 -3.6278 -12.6254 20.7359 -2.3190 0.0000 0.0000 11.7841 -14.0806 6.4348 -1.6102 7.1250 -0.0000 -0.0000 9.3213 -23.3647 4.9235
0.00 0.00 0.00 -177.8130 84.1777 -162.5020 0.0000 0.0000 0.0000 -24.0875 -4.6376 3.3301 1.5687 7.9031 22.4201 -0.4394 -16.8301 -6.8293 0.0058 0.4918 1.3513 0.0000 0.0000 0.0000 15.2183 22.9112 -37.6015 -1.1870 -6.9141 19.4611 0.0084 -2.9433 -3.6838 -0.3283 3.6824 -10.1849 -5.2235 -2.8848 -14.2888 1.8933 -2.9366 -4.7645 4.4491 -1.3422 3.3217 -6.1628 -0.2346 5.3987 9.9520 -0.4947 0.6195 4.4141 -0.3381 -0.7273 -0.0000 -0.0000 0.0000 -95.8618 -3.4961 8.0375 10.8507 -18.0591 -1.7294 -0.0000 -0.0000 33.5162 11.8470 21.7133 4.4376 -7.1250 0.0000 -0.0000 -17.0566 51.3210 -2.7226 -0.0000 -0.0000 0.0000 91.1147 -8.3492 -24.1926 -8.2706 13.9906 -1.0166 0.0000 0.0000 31.8592 -13.6969 6.4826 -1.5762 7.1250 -0.0000 -0.0000 9.6000 -23.3278 5.0829
